<?xml version="1.0" encoding="utf-8"?>
<!-- Generator: Adobe Illustrator 21.1.0, SVG Export Plug-In . SVG Version: 6.00 Build 0)  -->
<svg version="1.1" id="Layer_1" xmlns="http://www.w3.org/2000/svg" xmlns:xlink="http://www.w3.org/1999/xlink" x="0px" y="0px"
	 viewBox="0 0 612 792" style="enable-background:new 0 0 612 792;" xml:space="preserve">
<style type="text/css">
	.st0{fill:#D6D6D6;}
	.st1{fill:#243E54;}
</style>
<g>
	<path class="st0" d="M200.7,380.5c-0.2,0.2-0.3,0-0.3-0.2c0.4-1.1,0.4-2.3,0.7-3.4c0.6-2.9,1.2-5.8,2-8.6c1.2-4.4,2.7-8.8,4.5-13
		c1.6-3.9,3.5-7.6,5.6-11.3c2.1-3.8,4.5-7.4,7.1-10.8c2-2.7,4.2-5.3,6.5-7.8c1.6-1.7,3.3-3.4,5-5.1c2.6-2.5,5.3-4.8,8.2-7
		c2.6-2.1,5.4-4,8.2-5.8c3.1-2,6.3-3.7,9.5-5.4c2.1-1.1,4.3-2.1,6.5-3c2.8-1.2,5.7-2.3,8.6-3.2c2.3-0.7,4.6-1.4,6.9-2
		c2-0.5,4-0.9,6-1.3c1.8-0.3,3.7-0.7,5.5-0.9c1.7-0.2,3.3-0.4,5-0.6c4.6-0.5,9.1-0.5,13.7-0.4c2.9,0,5.8,0.3,8.6,0.7
		c3.1,0.4,6.1,0.8,9.2,1.5c2.3,0.5,4.6,1,6.9,1.6c2.2,0.6,4.3,1.3,6.5,2c3.1,1,6.1,2.3,9,3.6c2.1,0.9,4.2,2,6.2,3
		c3,1.5,5.8,3.3,8.6,5.1c3,1.9,5.9,4,8.6,6.3c3.5,2.8,6.8,5.8,9.9,9c3.9,4.1,7.6,8.4,10.8,13.1c2.6,3.7,4.9,7.5,7,11.4
		c1.3,2.4,2.4,4.8,3.5,7.3c1.3,3.1,2.5,6.3,3.5,9.6c0.2,0.8,0.4,1.5,0.6,2.3c-0.1,0-0.2,0-0.3-0.1c-1.6-2.1-3.8-3.2-6.2-3.9
		c-3.3-1-6.7-1.2-10.1-1c-6.2,0.4-12.1,2.1-17.9,4.4c-0.6,0.3-0.8,0.2-1.1-0.4c-1.9-3.9-4.3-7.4-7.1-10.7
		c-5.1-5.9-11.3-10.4-18.7-12.9c-3.6-1.2-7.3-1.9-11.1-2.1c-3-0.2-6,0.1-9,0.1c-2.5,0.1-5,0.3-7.5,0.5c-1.9,0.2-3.8,0.4-5.7,0.6
		c-3.5,0.4-7.1,0.9-10.6,1.6c-4.5,0.8-9.1,1.7-13.5,2.7c-4.5,1-8.9,2.2-13.3,3.4c-9,2.5-17.8,5.5-26.5,8.7
		c-6.8,2.5-13.5,5.3-20.2,8.1c-6,2.6-11.9,5.4-17.8,8.3c-3.7,1.8-7.2,3.7-10.9,5.6C201.1,380.1,200.9,380.3,200.7,380.5z"/>
	<path class="st1" d="M200.7,380.5c0-0.4,0.4-0.5,0.6-0.6c5.5-2.9,11-5.7,16.6-8.4c10.2-4.8,20.5-9.2,31-13.1
		c8.4-3.1,16.8-6,25.4-8.5c5.6-1.6,11.2-3.1,16.9-4.4c4.6-1,9.3-1.9,14-2.7c6.5-1.1,13.1-1.9,19.6-2.3c4.6-0.3,9.3-0.6,13.9,0
		c7.2,0.9,13.7,3.4,19.6,7.7c6.5,4.8,11.5,10.8,15.1,18c0.2,0.4,0.4,0.5,0.9,0.3c4.3-1.8,8.8-3.1,13.4-3.9c4.3-0.7,8.6-1,12.9,0
		c2.1,0.5,4.1,1.2,6,2.4c0.9,0.6,1.7,1.4,2.3,2.3c0.4,1.2,0.7,2.3,1,3.5c0.3,1.7,0,3.3-0.4,4.9c-0.7,2.6-1.8,5.1-3.1,7.4
		c-0.3,0.5-0.7,0.8-1.2,1c-0.3,0.1-0.6,0-0.9-0.2c-0.3-0.2-0.1-0.5-0.1-0.7c0.8-2.8,1.3-5.5,1.3-8.4c0-1.2-0.2-2.4-0.6-3.6
		c-0.6-1.6-1.9-2.4-3.4-2.8c-2.3-0.6-4.6-0.6-6.9-0.5c-4.6,0.2-9.1,1-13.5,1.9c-5.5,1.1-10.9,2.4-16.4,3.9c-5.2,1.4-10.5,3-15.6,4.6
		c-3.7,1.2-7.5,2.3-11.2,3.7c-0.1,0-0.2,0-0.4,0c0-0.3,0.3-0.3,0.4-0.4c8.9-5,18.1-9.6,27.7-13.1c0.4-0.1,0.6-0.3,0.4-0.8
		c-2.1-5.2-5.3-9.7-9.4-13.5c-4.7-4.3-10.2-7-16.4-8.3c-4.6-1-9.2-1.1-13.8-0.9c-4,0.2-8.1,0.6-12.1,1.1c-3.9,0.5-7.7,1.1-11.5,1.7
		c-4.1,0.7-8.1,1.6-12.2,2.5c-4.3,1-8.7,2-13,3.2c-5.9,1.6-11.8,3.3-17.6,5.1c-7.7,2.4-15.3,5-22.9,7.7
		c-10.9,3.9-21.8,8.1-32.5,12.7C203.4,379.3,202.1,379.9,200.7,380.5z"/>
	<path class="st1" d="M303.5,383.2c0-3.9,3.2-7.1,7.1-7.1c3.9,0,7.1,3.2,7.1,7.2c0,3.9-3.2,7-7.2,7
		C306.6,390.4,303.5,387.2,303.5,383.2z"/>
	<path class="st1" d="M380.6,354c-0.5-0.1-0.6-0.4-0.7-0.6c-3.7-7.8-9.1-14.2-16.6-18.7c-4.5-2.8-9.5-4.5-14.6-5.6
		c-4.3-1-8.7-1.3-13.1-1.2c-2.8,0.1-5.6,0.4-8.3,1.1c-0.1,0-0.2,0-0.4,0c1.9-0.9,3.7-1.5,5.5-2c4.6-1.2,9.2-1.7,13.9-1.4
		c7.8,0.6,15,3,21.3,7.7c6.4,4.8,10.6,11.1,12.7,18.8C380.4,352.7,380.6,353.3,380.6,354z"/>
	<path class="st1" d="M328.7,334.1c1.7-0.8,3.4-1.3,5.2-1.7c3.1-0.8,6.3-1.1,9.6-0.9c8.8,0.5,16.5,3.6,22.5,10.3
		c3.3,3.6,5.4,7.9,6.4,12.7c0,0.1,0,0.2,0,0.3c-0.4,0-0.5-0.3-0.6-0.6c-4.2-8.7-10.7-15-20-18.3c-5.2-1.9-10.6-2.8-16.2-2.6
		c-2.2,0.1-4.4,0.3-6.5,0.9C328.9,334.2,328.8,334.3,328.7,334.1z"/>
	<path class="st1" d="M367.1,353.6c-9.3-10.9-21.1-16.1-35.2-15.7C343.9,334.2,361,340.1,367.1,353.6z"/>
</g>
</svg>
