<?xml version="1.0" encoding="utf-8"?>
<!-- Generator: Adobe Illustrator 21.1.0, SVG Export Plug-In . SVG Version: 6.00 Build 0)  -->
<svg version="1.1" id="Layer_1" xmlns="http://www.w3.org/2000/svg" xmlns:xlink="http://www.w3.org/1999/xlink" x="0px" y="0px"
	 viewBox="0 0 612 792" style="enable-background:new 0 0 300 400;" xml:space="preserve">
<style type="text/css">
	.st0{fill:#243E54;}
</style>
<g>
	<path class="st0" d="M200.9,344.8c0-0.4,0.4-0.5,0.6-0.6c5.5-2.9,11-5.7,16.6-8.4c10.2-4.8,20.5-9.2,31-13.1
		c8.4-3.1,16.8-6,25.4-8.5c5.6-1.6,11.2-3.1,16.9-4.4c4.6-1,9.3-1.9,14-2.7c6.5-1.1,13.1-1.9,19.6-2.3c4.6-0.3,9.3-0.6,13.9,0
		c7.2,0.9,13.7,3.4,19.6,7.7c6.5,4.8,11.5,10.8,15.1,18c0.2,0.4,0.4,0.5,0.9,0.3c4.3-1.8,8.8-3.1,13.4-3.9c4.3-0.7,8.6-1,12.9,0
		c2.1,0.5,4.1,1.2,6,2.4c0.9,0.6,1.7,1.4,2.3,2.3c0.4,1.2,0.7,2.3,1,3.5c0.3,1.7,0,3.3-0.4,4.9c-0.7,2.6-1.8,5.1-3.1,7.4
		c-0.3,0.5-0.7,0.8-1.2,1c-0.3,0.1-0.6,0-0.9-0.2c-0.3-0.2-0.1-0.5-0.1-0.7c0.8-2.8,1.3-5.5,1.3-8.4c0-1.2-0.2-2.4-0.6-3.6
		c-0.6-1.6-1.9-2.4-3.4-2.8c-2.3-0.6-4.6-0.6-6.9-0.5c-4.6,0.2-9.1,1-13.5,1.9c-5.5,1.1-10.9,2.4-16.4,3.9c-5.2,1.4-10.5,3-15.6,4.6
		c-3.7,1.2-7.5,2.3-11.2,3.7c-0.1,0-0.2,0-0.4,0c0-0.3,0.3-0.3,0.4-0.4c8.9-5,18.1-9.6,27.7-13.1c0.4-0.1,0.6-0.3,0.4-0.8
		c-2.1-5.2-5.3-9.7-9.4-13.5c-4.7-4.3-10.2-7-16.4-8.3c-4.6-1-9.2-1.1-13.8-0.9c-4,0.2-8.1,0.6-12.1,1.1c-3.9,0.5-7.7,1.1-11.5,1.7
		c-4.1,0.7-8.1,1.6-12.2,2.5c-4.3,1-8.7,2-13,3.2c-5.9,1.6-11.8,3.3-17.6,5.1c-7.7,2.4-15.3,5-22.9,7.7
		c-10.9,3.9-21.8,8.1-32.5,12.7C203.5,343.7,202.2,344.3,200.9,344.8z"/>
	<path class="st0" d="M303.6,347.6c0-3.9,3.2-7.1,7.1-7.1c3.9,0,7.1,3.2,7.1,7.2c0,3.9-3.2,7-7.2,7
		C306.8,354.7,303.6,351.5,303.6,347.6z"/>
	<path class="st0" d="M380.8,318.4c-0.5-0.1-0.6-0.4-0.7-0.6c-3.7-7.8-9.1-14.2-16.6-18.7c-4.5-2.8-9.5-4.5-14.6-5.6
		c-4.3-1-8.7-1.3-13.1-1.2c-2.8,0.1-5.6,0.4-8.3,1.1c-0.1,0-0.2,0-0.4,0c1.9-0.9,3.7-1.5,5.5-2c4.6-1.2,9.2-1.7,13.9-1.4
		c7.8,0.6,15,3,21.3,7.7c6.4,4.8,10.6,11.1,12.7,18.8C380.6,317.1,380.7,317.7,380.8,318.4z"/>
	<path class="st0" d="M328.8,298.5c1.7-0.8,3.4-1.3,5.2-1.7c3.1-0.8,6.3-1.1,9.6-0.9c8.8,0.5,16.5,3.6,22.5,10.3
		c3.3,3.6,5.4,7.9,6.4,12.7c0,0.1,0,0.2,0,0.3c-0.4,0-0.5-0.3-0.6-0.6c-4.2-8.7-10.7-15-20-18.3c-5.2-1.9-10.6-2.8-16.2-2.6
		c-2.2,0.1-4.4,0.3-6.5,0.9C329.1,298.6,329,298.6,328.8,298.5z"/>
	<path class="st0" d="M367.2,318c-9.3-10.9-21.1-16.1-35.2-15.7C344,298.6,361.2,304.5,367.2,318z"/>
</g>
</svg>
