<?xml version="1.0" encoding="UTF-8" standalone="no"?>
<!-- Created with Inkscape (http://www.inkscape.org/) -->

<svg
   xmlns:dc="http://purl.org/dc/elements/1.1/"
   xmlns:cc="http://creativecommons.org/ns#"
   xmlns:rdf="http://www.w3.org/1999/02/22-rdf-syntax-ns#"
   xmlns:svg="http://www.w3.org/2000/svg"
   xmlns="http://www.w3.org/2000/svg"
   xmlns:sodipodi="http://sodipodi.sourceforge.net/DTD/sodipodi-0.dtd"
   xmlns:inkscape="http://www.inkscape.org/namespaces/inkscape"
   width="192px"
   height="192px"
     fill= "#e4e4e4"
   viewBox="0 0 192 192"
   version="1.1"
   id="SVGRoot"
   inkscape:version="0.92.4 (5da689c313, 2019-01-14)"
   sodipodi:docname="3.svg">
  <defs
     id="defs3878" />
  <sodipodi:namedview
     id="base"
     pagecolor="#ffffff"
     bordercolor="#666666"
     borderopacity="1.0"
     inkscape:pageopacity="0.0"
     inkscape:pageshadow="2"
     inkscape:zoom="1.3333333"
     inkscape:cx="96"
     inkscape:cy="96"
     inkscape:document-units="px"
     inkscape:current-layer="layer1"
     showgrid="false"
     inkscape:window-width="1920"
     inkscape:window-height="1016"
     inkscape:window-x="0"
     inkscape:window-y="27"
     inkscape:window-maximized="1"
     inkscape:grid-bbox="true" />
  <metadata
     id="metadata3881">
    <rdf:RDF>
      <cc:Work
         rdf:about="">
        <dc:format>image/svg+xml</dc:format>
        <dc:type
           rdf:resource="http://purl.org/dc/dcmitype/StillImage" />
        <dc:title></dc:title>
      </cc:Work>
    </rdf:RDF>
  </metadata>
  <g
     inkscape:label="Layer 1"
     inkscape:groupmode="layer"
     id="layer1">
    <g
       transform="matrix(0.80720055,0,0,1.0363841,-152.14895,-241.03434)"
       id="g3800">
      <path
         inkscape:connector-curvature="0"
         class="st0"
         d="m 200.9,344.8 c 0,-0.4 0.4,-0.5 0.6,-0.6 5.5,-2.9 11,-5.7 16.6,-8.4 10.2,-4.8 20.5,-9.2 31,-13.1 8.4,-3.1 16.8,-6 25.4,-8.5 5.6,-1.6 11.2,-3.1 16.9,-4.4 4.6,-1 9.3,-1.9 14,-2.7 6.5,-1.1 13.1,-1.9 19.6,-2.3 4.6,-0.3 9.3,-0.6 13.9,0 7.2,0.9 13.7,3.4 19.6,7.7 6.5,4.8 11.5,10.8 15.1,18 0.2,0.4 0.4,0.5 0.9,0.3 4.3,-1.8 8.8,-3.1 13.4,-3.9 4.3,-0.7 8.6,-1 12.9,0 2.1,0.5 4.1,1.2 6,2.4 0.9,0.6 1.7,1.4 2.3,2.3 0.4,1.2 0.7,2.3 1,3.5 0.3,1.7 0,3.3 -0.4,4.9 -0.7,2.6 -1.8,5.1 -3.1,7.4 -0.3,0.5 -0.7,0.8 -1.2,1 -0.3,0.1 -0.6,0 -0.9,-0.2 -0.3,-0.2 -0.1,-0.5 -0.1,-0.7 0.8,-2.8 1.3,-5.5 1.3,-8.4 0,-1.2 -0.2,-2.4 -0.6,-3.6 -0.6,-1.6 -1.9,-2.4 -3.4,-2.8 -2.3,-0.6 -4.6,-0.6 -6.9,-0.5 -4.6,0.2 -9.1,1 -13.5,1.9 -5.5,1.1 -10.9,2.4 -16.4,3.9 -5.2,1.4 -10.5,3 -15.6,4.6 -3.7,1.2 -7.5,2.3 -11.2,3.7 -0.1,0 -0.2,0 -0.4,0 0,-0.3 0.3,-0.3 0.4,-0.4 8.9,-5 18.1,-9.6 27.7,-13.1 0.4,-0.1 0.6,-0.3 0.4,-0.8 -2.1,-5.2 -5.3,-9.7 -9.4,-13.5 -4.7,-4.3 -10.2,-7 -16.4,-8.3 -4.6,-1 -9.2,-1.1 -13.8,-0.9 -4,0.2 -8.1,0.6 -12.1,1.1 -3.9,0.5 -7.7,1.1 -11.5,1.7 -4.1,0.7 -8.1,1.6 -12.2,2.5 -4.3,1 -8.7,2 -13,3.2 -5.9,1.6 -11.8,3.3 -17.6,5.1 -7.7,2.4 -15.3,5 -22.9,7.7 -10.9,3.9 -21.8,8.1 -32.5,12.7 -1.3,0.4 -2.6,1 -3.9,1.5 z"
         id="path3790" />
      <path
         inkscape:connector-curvature="0"
         class="st0"
         d="m 303.6,347.6 c 0,-3.9 3.2,-7.1 7.1,-7.1 3.9,0 7.1,3.2 7.1,7.2 0,3.9 -3.2,7 -7.2,7 -3.8,0 -7,-3.2 -7,-7.1 z"
         id="path3792" />
      <path
         inkscape:connector-curvature="0"
         class="st0"
         d="m 380.8,318.4 c -0.5,-0.1 -0.6,-0.4 -0.7,-0.6 -3.7,-7.8 -9.1,-14.2 -16.6,-18.7 -4.5,-2.8 -9.5,-4.5 -14.6,-5.6 -4.3,-1 -8.7,-1.3 -13.1,-1.2 -2.8,0.1 -5.6,0.4 -8.3,1.1 -0.1,0 -0.2,0 -0.4,0 1.9,-0.9 3.7,-1.5 5.5,-2 4.6,-1.2 9.2,-1.7 13.9,-1.4 7.8,0.6 15,3 21.3,7.7 6.4,4.8 10.6,11.1 12.7,18.8 0.1,0.6 0.2,1.2 0.3,1.9 z"
         id="path3794" />
      <path
         inkscape:connector-curvature="0"
         class="st0"
         d="m 328.8,298.5 c 1.7,-0.8 3.4,-1.3 5.2,-1.7 3.1,-0.8 6.3,-1.1 9.6,-0.9 8.8,0.5 16.5,3.6 22.5,10.3 3.3,3.6 5.4,7.9 6.4,12.7 0,0.1 0,0.2 0,0.3 -0.4,0 -0.5,-0.3 -0.6,-0.6 -4.2,-8.7 -10.7,-15 -20,-18.3 -5.2,-1.9 -10.6,-2.8 -16.2,-2.6 -2.2,0.1 -4.4,0.3 -6.5,0.9 -0.1,0 -0.2,0 -0.4,-0.1 z"
         id="path3796" />
      <path
         inkscape:connector-curvature="0"
         class="st0"
         d="m 367.2,318 c -9.3,-10.9 -21.1,-16.1 -35.2,-15.7 12,-3.7 29.2,2.2 35.2,15.7 z"
         id="path3798" />
    </g>
  </g>
</svg>
